<svg xmlns="http://www.w3.org/2000/svg" width="219" height="55" fill="none"><path fill="#F0EAFF" d="M49.56 46.4c-1.52 0-2.933-.2-4.24-.6-1.28-.4-2.453-1-3.52-1.8-1.04-.827-1.973-1.84-2.8-3.04l2.96-3.4c1.307 1.867 2.56 3.16 3.76 3.88 1.2.72 2.627 1.08 4.28 1.08 1.013 0 1.933-.16 2.76-.48.827-.32 1.48-.76 1.96-1.32s.72-1.2.72-1.92c0-.48-.08-.933-.24-1.36a3.242 3.242 0 0 0-.76-1.16c-.32-.347-.747-.667-1.28-.96a8.701 8.701 0 0 0-1.8-.76c-.693-.24-1.493-.44-2.4-.6-1.44-.293-2.693-.68-3.76-1.16-1.067-.48-1.96-1.08-2.68-1.8a6.922 6.922 0 0 1-1.6-2.44c-.347-.933-.52-1.973-.52-3.12 0-1.12.24-2.16.72-3.12a7.946 7.946 0 0 1 2.04-2.48c.88-.72 1.907-1.267 3.08-1.64 1.173-.4 2.44-.6 3.8-.6 1.44 0 2.76.187 3.96.56 1.2.373 2.267.933 3.2 1.68a9.02 9.02 0 0 1 2.32 2.68l-3.04 3c-.533-.88-1.133-1.613-1.8-2.2a6.577 6.577 0 0 0-2.2-1.36c-.8-.32-1.653-.48-2.56-.48-1.04 0-1.947.16-2.72.48-.773.32-1.387.773-1.84 1.36-.427.56-.64 1.227-.64 2 0 .56.107 1.08.32 1.56.213.453.533.867.96 1.24.453.347 1.053.667 1.8.96.747.267 1.64.507 2.68.72 1.467.32 2.773.733 3.92 1.24 1.147.48 2.12 1.053 2.92 1.72.8.667 1.4 1.413 1.8 2.24.427.827.64 1.72.64 2.68 0 1.787-.413 3.333-1.24 4.64-.827 1.307-2 2.32-3.52 3.04-1.52.693-3.333 1.04-5.44 1.04Zm15.96-.4V25h4.12v21h-4.12Zm2-25.64c-.88 0-1.56-.227-2.04-.68-.48-.453-.72-1.093-.72-1.92 0-.773.24-1.4.72-1.88.508-.48 1.188-.72 2.04-.72.88 0 1.56.227 2.04.68.48.453.72 1.093.72 1.92 0 .773-.252 1.4-.76 1.88-.48.48-1.146.72-2 .72ZM91.295 54.8V41h.8c0 .64-.214 1.28-.64 1.92-.427.613-1 1.187-1.72 1.72-.72.533-1.52.96-2.4 1.28a7.9 7.9 0 0 1-2.72.48c-1.894 0-3.587-.467-5.08-1.4-1.494-.96-2.68-2.253-3.56-3.88-.854-1.653-1.28-3.533-1.28-5.64 0-2.107.426-3.973 1.28-5.6.853-1.653 2.013-2.947 3.48-3.88 1.493-.96 3.173-1.44 5.04-1.44 1.04 0 2.026.173 2.96.52.96.347 1.813.8 2.56 1.36.773.56 1.373 1.187 1.8 1.88.453.667.68 1.347.68 2.04l-1.2.08v-5.48h4.12V54.8h-4.12Zm-6.24-12.2c1.253 0 2.36-.307 3.32-.92s1.706-1.453 2.24-2.52c.56-1.067.84-2.293.84-3.68s-.28-2.613-.84-3.68c-.534-1.093-1.28-1.947-2.24-2.56-.96-.613-2.067-.92-3.32-.92-1.254 0-2.36.32-3.32.96-.96.613-1.72 1.467-2.28 2.56-.534 1.067-.8 2.28-.8 3.64 0 1.36.266 2.587.8 3.68.56 1.067 1.32 1.907 2.28 2.52.96.613 2.066.92 3.32.92Zm23.475 3.8c-1.493 0-2.8-.347-3.92-1.04-1.093-.693-1.947-1.667-2.56-2.92-.587-1.253-.88-2.747-.88-4.48V25h4.12v11.84c0 1.227.187 2.293.56 3.2.4.88.96 1.56 1.68 2.04.747.48 1.64.72 2.68.72.773 0 1.48-.12 2.12-.36a5.015 5.015 0 0 0 1.64-1.08c.48-.453.853-1 1.12-1.64.267-.64.4-1.333.4-2.08V25h4.12v21h-4.12v-4.4l.72-.48c-.32.987-.867 1.88-1.64 2.68a8.49 8.49 0 0 1-2.68 1.92c-1.04.453-2.16.68-3.36.68Zm26.659 0c-2.16 0-4.08-.453-5.76-1.36a10.51 10.51 0 0 1-3.92-3.8c-.934-1.6-1.4-3.44-1.4-5.52 0-1.653.266-3.16.8-4.52.533-1.36 1.266-2.533 2.2-3.52a9.65 9.65 0 0 1 3.4-2.32c1.333-.56 2.773-.84 4.32-.84 1.36 0 2.626.267 3.8.8a9.063 9.063 0 0 1 3.04 2.12c.88.907 1.546 1.987 2 3.24.48 1.227.706 2.573.68 4.04l-.04 1.76h-17.16l-.92-3.28h14.52l-.6.68v-.96a4.64 4.64 0 0 0-.88-2.36 5.444 5.444 0 0 0-1.92-1.64c-.774-.4-1.614-.6-2.52-.6-1.44 0-2.654.28-3.64.84-.987.533-1.734 1.333-2.24 2.4-.507 1.04-.76 2.333-.76 3.88 0 1.467.306 2.747.92 3.84a6.302 6.302 0 0 0 2.6 2.48c1.12.587 2.413.88 3.88.88 1.04 0 2-.173 2.88-.52.906-.347 1.88-.973 2.92-1.88l2.08 2.92c-.64.64-1.427 1.2-2.36 1.68-.907.48-1.88.867-2.92 1.16a11.76 11.76 0 0 1-3 .4Zm14.317-.4V25h4.12v21h-4.12Zm2-25.64c-.88 0-1.56-.227-2.04-.68-.48-.453-.72-1.093-.72-1.92 0-.773.24-1.4.72-1.88.507-.48 1.187-.72 2.04-.72.88 0 1.56.227 2.04.68.48.453.72 1.093.72 1.92 0 .773-.253 1.4-.76 1.88-.48.48-1.146.72-2 .72ZM159.958 46V25h4.16v6.6l-.4-1.6a7.5 7.5 0 0 1 1.48-2.76 8.498 8.498 0 0 1 2.44-1.96c.933-.48 1.893-.72 2.88-.72.453 0 .88.04 1.28.12.427.08.76.173 1 .28l-1.08 4.48c-.32-.133-.68-.24-1.08-.32a4.059 4.059 0 0 0-1.12-.16c-.72 0-1.413.147-2.08.44a5.3 5.3 0 0 0-1.72 1.16 5.577 5.577 0 0 0-1.16 1.72 5.033 5.033 0 0 0-.44 2.12V46h-4.16Zm23.315.4a8.4 8.4 0 0 1-4.76-1.44c-1.414-.96-2.547-2.267-3.4-3.92-.854-1.653-1.28-3.52-1.28-5.6 0-2.107.426-3.973 1.28-5.6.88-1.653 2.053-2.947 3.52-3.88 1.493-.933 3.16-1.4 5-1.4 1.093 0 2.093.16 3 .48a7.12 7.12 0 0 1 2.36 1.36 6.927 6.927 0 0 1 1.68 1.96c.453.747.733 1.547.84 2.4l-.92-.32V25h4.16v21h-4.16v-5l.96-.28c-.16.72-.494 1.427-1 2.12-.48.667-1.107 1.267-1.88 1.8a9.753 9.753 0 0 1-2.52 1.28c-.907.32-1.867.48-2.88.48Zm1.08-3.8c1.253 0 2.36-.307 3.32-.92s1.706-1.453 2.24-2.52c.56-1.093.84-2.333.84-3.72 0-1.36-.28-2.573-.84-3.64-.534-1.067-1.28-1.907-2.24-2.52-.96-.613-2.067-.92-3.32-.92-1.227 0-2.32.307-3.28.92-.934.613-1.68 1.453-2.24 2.52-.534 1.067-.8 2.28-.8 3.64 0 1.387.266 2.627.8 3.72.56 1.067 1.306 1.907 2.24 2.52.96.613 2.053.92 3.28.92Z"/><path fill="#7248D0" d="M9.24 46V22.16H1.4V18h20.24v4.16h-8.08V46H9.24Zm17.367 0V25h4.12v21h-4.12Zm2-25.64c-.88 0-1.56-.227-2.04-.68-.48-.453-.72-1.093-.72-1.92 0-.773.24-1.4.72-1.88.506-.48 1.186-.72 2.04-.72.88 0 1.56.227 2.04.68.48.453.72 1.093.72 1.92 0 .773-.254 1.4-.76 1.88-.48.48-1.147.72-2 .72ZM210 18a9 9 0 0 0 9-9 9 9 0 0 0-9-9 9 9 0 0 0-9 9 9 9 0 0 0 9 9Z"/><g opacity=".2"><path fill="#04031B" d="M212.953 12.375a.522.522 0 0 1-.478-.281c-.169-.253-.084-.619.197-.788l2.841-1.744v-.056l-2.841-1.744a.613.613 0 0 1-.197-.787.614.614 0 0 1 .788-.197l2.981 1.856.056.057c.225.225.338.534.338.843 0 .31-.113.62-.338.844l-.056.056-2.981 1.857a.735.735 0 0 1-.31.084Z"/><path fill="#231F20" d="M207.047 12.375a.472.472 0 0 1-.281-.084l-2.982-1.857-.056-.028a1.19 1.19 0 0 1-.337-.844c0-.309.112-.618.337-.843l.056-.056 2.982-1.857c.253-.168.618-.084.787.197.169.253.084.619-.197.788l-2.84 1.743v.057l2.84 1.743a.613.613 0 0 1 .197.788.6.6 0 0 1-.506.253Z"/></g><path fill="#231F20" d="M208.172 14.906c-.056 0-.141 0-.197-.028-.281-.112-.422-.45-.338-.731l3.657-9.563c.112-.28.45-.421.731-.337.281.112.422.45.337.731l-3.656 9.563a.576.576 0 0 1-.534.365Z" opacity=".2"/><path fill="#04031B" d="M212.953 11.813a.522.522 0 0 1-.478-.282c-.169-.253-.084-.619.197-.787L215.513 9v-.028l-2.841-1.744a.613.613 0 0 1-.197-.787.614.614 0 0 1 .788-.197l2.981 1.856.056.056c.45.45.45 1.21 0 1.688l-.056.056-2.981 1.856c-.113.028-.225.056-.31.056ZM207.047 11.813a.472.472 0 0 1-.281-.085l-2.982-1.856-.056-.028c-.45-.45-.45-1.21 0-1.688l.056-.056 2.982-1.856c.253-.169.618-.085.787.197.169.253.084.618-.197.787l-2.84 1.744V9l2.84 1.744a.613.613 0 0 1 .197.787.563.563 0 0 1-.506.281ZM208.172 14.344c-.056 0-.141 0-.197-.028-.281-.113-.422-.45-.338-.732l3.657-9.562c.112-.281.45-.422.731-.338.281.113.422.45.337.732l-3.656 9.562a.576.576 0 0 1-.534.366Z"/></svg>