<svg xmlns="http://www.w3.org/2000/svg" width="23" height="24" fill="none"><path fill="#7248D0" fill-rule="evenodd" d="M20.032 4.369c0 .702-.57 1.272-1.272 1.272H4.24a1.272 1.272 0 1 1 0-2.544h14.52c.703 0 1.272.57 1.272 1.272Z" clip-rule="evenodd"/><path fill="#F0EAFF" fill-rule="evenodd" d="M20.032 12c0 .703-.57 1.272-1.272 1.272H4.24a1.272 1.272 0 1 1 0-2.544h14.52c.703 0 1.272.57 1.272 1.272Z" clip-rule="evenodd"/><path fill="#7248D0" fill-rule="evenodd" d="M20.032 19.631c0 .703-.57 1.272-1.272 1.272H4.24a1.272 1.272 0 1 1 0-2.544h14.52c.703 0 1.272.57 1.272 1.272Z" clip-rule="evenodd"/></svg>