<?xml version="1.0" standalone="no"?>
<!DOCTYPE svg PUBLIC "-//W3C//DTD SVG 20010904//EN"
 "http://www.w3.org/TR/2001/REC-SVG-20010904/DTD/svg10.dtd">
<svg version="1.0" xmlns="http://www.w3.org/2000/svg"
 width="150.000000pt" height="150.000000pt" viewBox="0 0 150.000000 150.000000"
 preserveAspectRatio="xMidYMid meet">

<g transform="translate(0.000000,150.000000) scale(0.100000,-0.100000)"
fill="#000000" stroke="none">
<path d="M305 1130 c-160 -182 -294 -342 -299 -355 -18 -47 -39 -20 447 -576
76 -87 146 -161 157 -164 25 -8 50 6 88 50 17 19 34 35 37 35 3 0 21 -18 41
-40 48 -53 90 -55 131 -6 15 18 90 101 165 184 76 82 129 148 118 145 -13 -4
-35 10 -74 47 -44 42 -59 50 -77 45 -21 -7 -305 -145 -380 -186 -49 -26 -60
-24 -97 14 -55 56 -58 50 159 288 105 114 114 130 97 163 -7 13 -71 86 -142
162 -149 160 -160 176 -151 203 3 11 51 69 105 128 l98 108 -32 40 c-25 30
-42 41 -67 43 -33 3 -42 -6 -324 -328z"/>
</g>
</svg>
