<svg version="1.0" xmlns="http://www.w3.org/2000/svg"
                    width="512.000000pt" height="512.000000pt" viewBox="0 0 512.000000 512.000000"
                    preserveAspectRatio="xMidYMid meet">

                    <g transform="translate(0.000000,512.000000) scale(0.100000,-0.100000)"
                    fill="#ffb91d" stroke="none">
                    <path d="M470 4904 c-221 -47 -408 -236 -455 -459 -22 -105 -22 -3665 0 -3770
                    47 -225 235 -413 460 -460 105 -22 4065 -22 4170 0 225 47 413 235 460 460 22
                    105 22 3665 0 3770 -47 225 -235 413 -460 460 -102 21 -4075 21 -4175 -1z
                    m4153 -414 c21 -14 50 -43 65 -64 l27 -39 3 -334 3 -333 -2160 0 -2161 0 0
                    313 c0 180 4 327 10 349 13 44 81 115 124 127 18 6 854 9 2042 8 l2010 -2 37
                    -25z m95 -2463 l-3 -1294 -27 -39 c-15 -21 -44 -50 -65 -64 l-37 -25 -2026 0
                    -2026 0 -37 25 c-21 14 -50 43 -65 64 l-27 39 -3 1294 -2 1293 2160 0 2160 0
                    -2 -1293z"/>
                    <path d="M832 4309 c-48 -14 -109 -80 -123 -131 -23 -89 12 -182 88 -229 57
                    -36 154 -34 210 3 62 41 88 90 88 168 0 77 -26 127 -85 166 -43 29 -125 39
                    -178 23z"/>
                    <path d="M1532 4309 c-48 -14 -109 -80 -123 -131 -23 -89 12 -182 88 -229 57
                    -36 154 -34 210 3 62 41 88 90 88 168 0 77 -26 127 -85 166 -43 29 -125 39
                    -178 23z"/>
                    <path d="M3325 2920 l-140 -140 110 -110 110 -110 -528 0 -527 0 0 -200 0
                    -200 527 0 528 0 -110 -110 -110 -110 140 -140 140 -140 350 350 350 350 -350
                    350 -350 350 -140 -140z"/>
                    <path d="M1305 1910 l-350 -350 350 -350 350 -350 140 140 140 140 -110 110
                    -110 110 518 0 517 0 0 200 0 200 -517 0 -518 0 110 110 110 110 -140 140
                    -140 140 -350 -350z"/>
                    </g>
                    </svg>
